<?xml version="1.0" encoding="UTF-8" standalone="no"?>
<!DOCTYPE svg PUBLIC "-//W3C//DTD SVG 1.1//EN" "http://www.w3.org/Graphics/SVG/1.1/DTD/svg11.dtd">
<svg width="100%" height="100%" viewBox="0 0 532 533" version="1.1" xmlns="http://www.w3.org/2000/svg" xmlns:xlink="http://www.w3.org/1999/xlink" xml:space="preserve" xmlns:serif="http://www.serif.com/" style="fill-rule:evenodd;clip-rule:evenodd;stroke-linejoin:round;stroke-miterlimit:2;">
    <g transform="matrix(1,0,0,1,-75,-21)">
        <path d="M401.67,114.89C341.811,55.031 244.76,55.031 184.9,114.89C125.04,174.749 125.041,271.8 184.9,331.66C244.759,391.52 341.81,391.519 401.67,331.66C461.53,271.801 461.529,174.75 401.67,114.89ZM160.15,90.144C233.677,16.613 352.89,16.613 426.42,90.144C495.775,159.499 499.713,269.504 438.225,343.474L461.159,366.404C483.932,354.232 512.882,357.748 532.089,376.955L577.37,422.236C600.878,445.744 600.878,483.857 577.37,507.365C553.862,530.873 515.749,530.873 492.241,507.365L446.96,462.084C427.753,442.877 424.237,413.928 436.409,391.154L413.479,368.22C339.51,429.708 229.509,425.771 160.149,356.415C86.618,282.888 86.618,163.675 160.149,90.145L160.15,90.144ZM507.34,401.694C497.5,391.854 481.547,391.854 471.707,401.694C461.867,411.534 461.867,427.487 471.707,437.327L516.992,482.612C526.832,492.452 542.785,492.452 552.625,482.612C562.465,472.772 562.465,456.819 552.625,446.979L507.34,401.694Z"/>
    </g>
</svg>
